<mxfile host="app.diagrams.net" modified="2023-11-05T10:55:08.093Z" agent="Mozilla/5.0 (Windows NT 10.0; Win64; x64) AppleWebKit/537.36 (KHTML, like Gecko) Chrome/116.0.0.0 Safari/537.36 OPR/102.0.0.0" etag="ckcpyjCWeH1bINEAzso5" version="22.0.8" type="github">
  <diagram name="Page-1" id="6aeg5bsSVXfJNw_j6cX9">
    <mxGraphModel dx="1009" dy="573" grid="1" gridSize="10" guides="1" tooltips="1" connect="1" arrows="1" fold="1" page="1" pageScale="1" pageWidth="850" pageHeight="1100" math="0" shadow="0">
      <root>
        <mxCell id="0" />
        <mxCell id="1" parent="0" />
        <mxCell id="ROokGIwU-I5PkmGVCqzA-1" value="Lucrari Cadastru GIS&lt;br&gt;" style="shape=cylinder3;whiteSpace=wrap;html=1;boundedLbl=1;backgroundOutline=1;size=15;fillColor=#d5e8d4;strokeColor=#82b366;" vertex="1" parent="1">
          <mxGeometry y="20" width="260" height="320" as="geometry" />
        </mxCell>
        <mxCell id="ROokGIwU-I5PkmGVCqzA-3" value="retea_sprijin&lt;br&gt;" style="rounded=1;whiteSpace=wrap;html=1;" vertex="1" parent="1">
          <mxGeometry x="280" y="110" width="120" height="60" as="geometry" />
        </mxCell>
        <mxCell id="ROokGIwU-I5PkmGVCqzA-5" value="echipa" style="rounded=1;whiteSpace=wrap;html=1;" vertex="1" parent="1">
          <mxGeometry x="280" y="170" width="120" height="60" as="geometry" />
        </mxCell>
        <mxCell id="ROokGIwU-I5PkmGVCqzA-7" value="angajatii" style="rounded=1;whiteSpace=wrap;html=1;" vertex="1" parent="1">
          <mxGeometry x="280" y="240" width="120" height="60" as="geometry" />
        </mxCell>
        <mxCell id="ROokGIwU-I5PkmGVCqzA-8" value="sectoare_cadastrale" style="rounded=1;whiteSpace=wrap;html=1;" vertex="1" parent="1">
          <mxGeometry x="280" y="40" width="120" height="60" as="geometry" />
        </mxCell>
        <mxCell id="ROokGIwU-I5PkmGVCqzA-9" value="echpament" style="rounded=1;whiteSpace=wrap;html=1;" vertex="1" parent="1">
          <mxGeometry x="425" y="40" width="120" height="60" as="geometry" />
        </mxCell>
        <mxCell id="ROokGIwU-I5PkmGVCqzA-10" value="hardware" style="rounded=1;whiteSpace=wrap;html=1;" vertex="1" parent="1">
          <mxGeometry x="425" y="110" width="120" height="60" as="geometry" />
        </mxCell>
        <mxCell id="ROokGIwU-I5PkmGVCqzA-11" value="flota" style="rounded=1;whiteSpace=wrap;html=1;" vertex="1" parent="1">
          <mxGeometry x="425" y="180" width="125" height="50" as="geometry" />
        </mxCell>
        <mxCell id="ROokGIwU-I5PkmGVCqzA-12" value="documente" style="rounded=1;whiteSpace=wrap;html=1;" vertex="1" parent="1">
          <mxGeometry x="425" y="240" width="120" height="60" as="geometry" />
        </mxCell>
        <mxCell id="ROokGIwU-I5PkmGVCqzA-13" value="masuratori" style="rounded=1;whiteSpace=wrap;html=1;" vertex="1" parent="1">
          <mxGeometry x="570" y="40" width="120" height="60" as="geometry" />
        </mxCell>
        <mxCell id="ROokGIwU-I5PkmGVCqzA-14" value="primarie" style="rounded=1;whiteSpace=wrap;html=1;" vertex="1" parent="1">
          <mxGeometry x="570" y="110" width="120" height="60" as="geometry" />
        </mxCell>
        <mxCell id="ROokGIwU-I5PkmGVCqzA-15" value="proprietar" style="rounded=1;whiteSpace=wrap;html=1;" vertex="1" parent="1">
          <mxGeometry x="570" y="180" width="120" height="50" as="geometry" />
        </mxCell>
        <mxCell id="ROokGIwU-I5PkmGVCqzA-16" value="software" style="rounded=1;whiteSpace=wrap;html=1;" vertex="1" parent="1">
          <mxGeometry x="570" y="240" width="120" height="60" as="geometry" />
        </mxCell>
        <mxCell id="ROokGIwU-I5PkmGVCqzA-17" value="dosar" style="rounded=1;whiteSpace=wrap;html=1;" vertex="1" parent="1">
          <mxGeometry x="710" y="40" width="120" height="60" as="geometry" />
        </mxCell>
        <mxCell id="ROokGIwU-I5PkmGVCqzA-18" value="templates" style="rounded=1;whiteSpace=wrap;html=1;" vertex="1" parent="1">
          <mxGeometry x="710" y="110" width="120" height="60" as="geometry" />
        </mxCell>
        <mxCell id="ROokGIwU-I5PkmGVCqzA-19" value="planse" style="rounded=1;whiteSpace=wrap;html=1;" vertex="1" parent="1">
          <mxGeometry x="710" y="175" width="120" height="60" as="geometry" />
        </mxCell>
        <mxCell id="ROokGIwU-I5PkmGVCqzA-20" value="respingeri" style="rounded=1;whiteSpace=wrap;html=1;" vertex="1" parent="1">
          <mxGeometry x="710" y="240" width="120" height="60" as="geometry" />
        </mxCell>
        <mxCell id="ROokGIwU-I5PkmGVCqzA-21" value="completari" style="rounded=1;whiteSpace=wrap;html=1;" vertex="1" parent="1">
          <mxGeometry x="850" y="40" width="120" height="60" as="geometry" />
        </mxCell>
        <mxCell id="ROokGIwU-I5PkmGVCqzA-22" value="contestatii" style="rounded=1;whiteSpace=wrap;html=1;" vertex="1" parent="1">
          <mxGeometry x="850" y="110" width="120" height="60" as="geometry" />
        </mxCell>
      </root>
    </mxGraphModel>
  </diagram>
</mxfile>
